<svg xmlns="http://www.w3.org/2000/svg" version="1.1" xmlns:xlink="http://www.w3.org/1999/xlink" width="1500" height="1500" viewBox="0 0 1500 1500"><rect width="1500" height="1500" x="0" y="0" id="background" stroke="transparent" fill="#000000"></rect><svg xml:space="preserve" width="1000" height="1000" data-version="2" data-id="lg_fnnEMFweRkhBm1sBmO" viewBox="0 0 565 99" x="250" y="250"><rect width="100%" height="100%" fill="transparent"></rect><path fill="#d8d8d8" d="M151.12 22.69q-2.74-.91-6.6-.91-3.86 0-6.93 1.95t-3.07 5.56q0 3.61 2.16 6.27 2.16 2.65 5.23 4.85 3.07 2.2 6.1 4.65t5.19 6.1q2.15 3.65 2.15 8.22 0 4.56-3.81 9.21-6.23 7.47-20.59 7.47-1.99 0-3.53-.21-1.53-.21-2.36-.29-.83-.08-1.74-.25-2-.33-2-.99 0-4.4 1.58-5.4 3.4 1.08 6.97 1.08 17.27 0 17.27-9.88 0-5.14-7.31-10.54-3.07-2.24-6.1-4.65-3.03-2.4-5.19-6.01-2.15-3.61-2.15-7.93 0-6.56 5.68-10.79 5.69-4.23 13.32-4.23 1.66 0 4.44.37 2.78.37 2.99.96.21.58.21 1.32 0 .75-.5 2.2-.5 1.46-1.41 1.87m20.34-4.15-.09 15.77q0 9.71.5 16.77 1.58-1.17 3.9-2.99 5.23-4.15 7.47-5.56 2.24-1.41 3.32-2.33 2.49-1.99 3.36-1.99.87 0 1.83.79.95.79.95 1.45 0 1.41-3.61 4.15t-7.22 5.19q-3.61 2.45-3.61 3.11 0 .67 1.95 2.74 1.95 2.08 4.15 4.19 2.2 2.12 4.57 4.32 2.36 2.2 2.53 2.36.16.17.95.88.79.7 1.21 1.12.41.41.99 1.08 1.16 1.32 1.16 2.24 0 .91-1.57 2.57-1.58 1.66-2.28 1.66-.71 0-1.13-.21-.41-.21-.62-.45-.21-.25-.74-.83-.54-.59-1.71-1.79-1.16-1.2-4.4-4.61-7.13-7.55-11.62-11.37-.08 3.07-.08 4.82l.17 8.21v1.37q0 1.04-.04 1.71-.05.66-.5 1.32-.46.67-1.41.83-.96.17-2.53.17-1.58 0-2.25-.13-.66-.12-.99-.87-.42-.83-.42-4.48l.34-33.86-.09-11.87q0-9.05 1.08-9.88.5-.33 2.82-.33 2.33 0 2.99.83.67.83.67 3.9m31.45 8.8q-.83-.25-1.95-1.7-1.12-1.46-1.08-2.74.04-1.29 1.66-2.66 1.62-1.37 4.19-1.37 3.82 0 3.82 3.65 0 2.58-1.62 3.82-1.61 1.25-2.9 1.25-1.29 0-2.12-.25m5.15 17.76v11.95l.25 16.44q0 .99-.25 1.24-.83.42-3.49.42-2.65 0-3.28-.38-.62-.37-.62-2.28l-.33-15.19q0-7.97.08-10.12l.25-4.9q0-2.33.75-2.74.75-.42 2.86-.42 2.12 0 3.61.25.17 3.66.17 5.73m9.21 10.54v-8.71l-.16-16.94q0-1.66.04-3.19.04-1.54.04-2.7v-3.9q0-3.73.54-5.06.54-1.33 3.24-1.33 2.69 0 3.36.37.66.38.66 1.7l.08 30.63.09 18.26q0 2.49 1.49 3.99 1.49 1.49 3.4 1.49t3.86-.46q1.95-.45 2.45-.45 1.08 0 1.08 1.32 0 2.83-3.9 4.15-2.74.83-5.85.83-3.11 0-5.02-1.07-1.91-1.08-2.95-2.66-1.04-1.58-1.62-4.48-.83-4.07-.83-11.79m23.16 0v-8.71l-.17-16.94q0-1.66.04-3.19.05-1.54.05-2.7v-3.9q0-3.73.54-5.06.53-1.33 3.23-1.33t3.36.37q.67.38.67 1.7l.08 30.63.08 18.26q0 2.49 1.5 3.99 1.49 1.49 3.4 1.49t3.86-.46q1.95-.45 2.45-.45 1.08 0 1.08 1.32 0 2.83-3.9 4.15-2.74.83-5.85.83-3.12 0-5.03-1.07-1.91-1.08-2.94-2.66-1.04-1.58-1.62-4.48-.83-4.07-.83-11.79m73.29-39.67q3.9.08 9.54 1.49 5.65 1.41 5.65 2.45 0 1.04-.92 2.66-.91 1.61-1.32 1.78-.75 0-4.74-1.08-5.39-.83-6.97-.83-7.55 0-11.78 1.66-3.24 1.16-6.1 3.45-2.87 2.28-4.61 4.48-1.74 2.2-3.11 5.72-1.37 3.53-1.46 7.6 0 9.46 6.56 16.31 6.56 6.85 19.34 7.34 4.15 0 12.2-1.57 2.99-1 3.49-1 .66.25 1.12 1.2.45.96.45 1.87 0 1.99-5.93 4.19t-12.82 2.37q-9.47-.17-18.1-4.65-9.63-4.9-13.44-13.44-2.08-4.82-2.08-10.38 0-13.53 10.04-22.58 10.05-9.04 24.99-9.04m58.84 40.34q0 8.54-5.85 14.15-5.85 5.6-14.02 5.6-8.18 0-13.53-5.15-5.36-5.14-5.36-13.9 0-8.76 5.69-13.78 5.68-5.02 15.64-5.02 5.57 0 11.04 3.49 2.83 1.91 4.61 5.68 1.78 3.78 1.78 8.93m-18.75 13.61q5.23 0 8.42-3.78 3.2-3.78 3.2-9.34 0-5.56-2.78-9.21-2.78-3.65-8.14-3.65-5.35 0-8.96 3.32-3.61 3.32-3.61 9.46 0 6.14 3.32 9.67 3.32 3.53 8.55 3.53m28.3-30.8 3.9-.08q0 .42.5 2.08.5-.17 2.82-1 5.48-1.91 9.09-1.91 3.61 0 6.35 1.12 2.74 1.12 4.23 2.82 1.5 1.71 2.41 4.53 1.33 4.56 1.33 12.12l-.42 14.19q0 1.66-.29 1.91t-2.32.25q-2.04 0-4.69-.34-.25-1.99-.25-6.97l.08-10.62q0-6.64-2.24-10-2.24-3.36-7.68-3.36-5.43 0-8.26 1.57l.17 11.12q.08 7.47.08 11.62l.17 4.9q0 1.33-.66 1.7-.67.38-2.83.38l-4.31-.17-.33-17.35.33-12.61v-2.99q0-2.91 2.82-2.91m42.33 0 3.9-.08q0 .42.5 2.08.5-.17 2.82-1 5.48-1.91 9.09-1.91 3.61 0 6.35 1.12 2.74 1.12 4.23 2.82 1.5 1.71 2.41 4.53 1.33 4.56 1.33 12.12l-.42 14.19q0 1.66-.29 1.91t-2.32.25q-2.04 0-4.69-.34-.25-1.99-.25-6.97l.08-10.62q0-6.64-2.24-10-2.24-3.36-7.68-3.36-5.43 0-8.26 1.57l.17 11.12q.08 7.47.08 11.62l.17 4.9q0 1.33-.66 1.7-.67.38-2.83.38l-4.31-.17-.33-17.35.33-12.61v-2.99q0-2.91 2.82-2.91m67.64 15.44-19 .09q-3.07 0-3.57.49-.42.58-.42 1.91 0 6.48 3.7 9.92 3.69 3.45 8.42 3.45t7.39-1.25q.08 0 1.66-1.08 1.58-1.08 2.2-1.08.62 0 .95.5.33.5.33 1 0 3.15-4.64 5.35-4.65 2.2-10.83 2.2-6.19 0-11.79-4.98-5.6-4.98-5.6-13.45 0-8.46 5.27-13.94 5.27-5.48 14.15-5.48 6.47 0 10.46 3.82 4.23 3.98 4.23 9.63 0 2.9-2.91 2.9M470.5 50.5q15.77 0 18.26-.17-.24-3.32-2.53-5.48-2.28-2.16-5.77-2.16-3.48 0-6.51 2.45t-3.45 5.36m59.35 18.84q1.41 0 1.41 1.99 0 4.73-12.28 4.73-5.23 0-9.3-1.66t-6.31-4.32q-4.65-5.47-4.65-12.2 0-8.63 6.48-13.98 6.47-5.36 16.1-5.36 9.63 0 9.63 2.74 0 1.91-.67 2.16-.66.25-.99.25h-1.5q-9.87 0-15.35 2.86-5.48 2.87-5.48 9.84t4.19 10.58q4.19 3.61 11.75 3.61 1.74 0 3.98-.62t2.99-.62m16.68-18.26-.16 11.95q0 3.4 1.16 5.19 1.16 1.78 3.9 1.78t4.65-.5q3.57-.99 3.57 1 0 5.56-10.3 5.56-5.81 0-9.04-5.23-1.58-3.32-1.58-7.88l.17-9.63.16-6.97q0-1.17-.33-1.46-.33-.29-1.24-.29l-3.24.25q-2.08 0-2.08-1.33 0-2.32.54-3.28.54-.95 2.04-.95l3.23.25q1.17 0 1.17-2.82v-5.15q0-2.16.08-2.49.99-.5 6.56-.5 1.49 0 1.49 1.58l-.25 9.13q1 .08 3.24.08l6.64-.49q1.33 0 1.33 1.57 0 4.57-4.49 4.57l-5.39-.33q-1.33 0-1.66.16-.17 1.5-.17 6.23"></path><ellipse fill="#7d7d7d" rx="140.58" ry="68" transform="rotate(-45 87.373 -39.26)scale(.3183)"></ellipse><ellipse fill="#2b2b2b" rx="140.58" ry="68" transform="rotate(-90 51.984 -2.456)scale(.3302)"></ellipse><ellipse fill="#9c9c9c" rx="140.58" ry="68" transform="rotate(-135.003 37.276 13.555)scale(.3302)"></ellipse></svg></svg>